<?xml version="1.0" encoding="utf-8"?>
<!-- Generator: Adobe Illustrator 16.0.0, SVG Export Plug-In . SVG Version: 6.00 Build 0)  -->
<!DOCTYPE svg PUBLIC "-//W3C//DTD SVG 1.1//EN" "http://www.w3.org/Graphics/SVG/1.1/DTD/svg11.dtd">
<svg version="1.1" xmlns="http://www.w3.org/2000/svg" xmlns:xlink="http://www.w3.org/1999/xlink" x="0px" y="0px" width="60px"
	 height="60px" viewBox="0 0 60 60" enable-background="new 0 0 60 60" xml:space="preserve">
<g id="Layer_1">
</g>
<g id="txt">
	<linearGradient id="SVGID_2_" gradientUnits="userSpaceOnUse" x1="30" y1="58.4282" x2="30" y2="6.3549">
		<stop  offset="0" style="stop-color:#477256"/>
		<stop  offset="1" style="stop-color:#135D6B"/>
	</linearGradient>
	<rect y="0" fill="url(#SVGID_2_)" width="60" height="60"/>
	<g>
		<path fill="#FFFFFF" d="M47.678,49.463c0,1.09-0.877,1.974-1.959,1.974H14.283c-1.084,0-1.961-0.884-1.961-1.974v-27.47
			c0-1.09,0.877-1.974,1.961-1.974h31.436c1.082,0,1.959,0.884,1.959,1.974V49.463z"/>
		<g>
			<g>
				<g>
					<path fill="none" stroke="#293F54" stroke-width="0.5669" stroke-miterlimit="10" d="M45.875,48.728c0,0.552-0.448,1-1,1
						H15.313c-0.553,0-1-0.448-1-1v-26c0-0.552,0.447-1,1-1h29.563c0.552,0,1,0.448,1,1V48.728z"/>
					
						<line fill="none" stroke="#293F54" stroke-width="0.5669" stroke-miterlimit="10" x1="14.125" y1="28.666" x2="45.813" y2="28.666"/>
					<circle fill="#00B1CC" cx="16.875" cy="25.291" r="0.813"/>
					<circle fill="#00B1CC" cx="20.875" cy="25.291" r="0.813"/>
					<circle fill="#00B1CC" cx="24.875" cy="25.291" r="0.813"/>
					<circle fill="#293F54" cx="30.25" cy="25.291" r="0.5"/>
					<circle fill="#293F54" cx="32.774" cy="25.291" r="0.5"/>
					<circle fill="#293F54" cx="35.299" cy="25.291" r="0.5"/>
					<circle fill="#293F54" cx="37.824" cy="25.291" r="0.5"/>
					<circle fill="#293F54" cx="40.35" cy="25.291" r="0.5"/>
					<circle fill="#293F54" cx="42.875" cy="25.291" r="0.5"/>
				</g>
			</g>
			<g>
				<g>
					<path fill="#FFC500" d="M21.737,30.817v0.221h-0.223c-0.122,0-0.221,0.099-0.221,0.222c0,0.122,0.099,0.222,0.221,0.222h0.223
						v0.222c0,0.122,0.099,0.222,0.222,0.222c0.124,0,0.224-0.101,0.224-0.222v-0.222h0.22c0.124,0,0.223-0.1,0.223-0.222
						c0-0.123-0.099-0.222-0.223-0.222h-0.22v-0.221c0-0.123-0.1-0.222-0.224-0.222C21.836,30.595,21.737,30.694,21.737,30.817z"/>
					<path fill="#FFC500" d="M25.63,33.261c0,0.189,0.152,0.343,0.343,0.343c0.188,0,0.344-0.153,0.344-0.343v-0.342h0.342
						c0.19,0,0.344-0.154,0.344-0.343c0-0.19-0.153-0.344-0.344-0.344h-0.342v-0.343c0-0.19-0.155-0.343-0.344-0.343
						c-0.19,0-0.343,0.153-0.343,0.343v0.343h-0.343c-0.19,0-0.344,0.153-0.344,0.344c0,0.189,0.153,0.343,0.344,0.343h0.343V33.261
						z"/>
					<path fill="#FFC500" d="M18.928,40.411v-0.344h0.341c0.191,0,0.345-0.153,0.345-0.343s-0.153-0.343-0.345-0.343h-0.341v-0.343
						c0-0.189-0.155-0.343-0.344-0.343c-0.19,0-0.344,0.154-0.344,0.343v0.343h-0.343c-0.19,0-0.342,0.153-0.342,0.343
						s0.151,0.343,0.342,0.343h0.343v0.344c0,0.189,0.153,0.342,0.344,0.342C18.772,40.753,18.928,40.6,18.928,40.411z"/>
					<circle fill="#FFC500" cx="23.479" cy="33.333" r="0.344"/>
					<path fill="#FFC500" d="M16.175,34.077c0-0.189,0.155-0.343,0.342-0.343c0.192,0,0.346,0.154,0.346,0.343
						s-0.153,0.342-0.346,0.342C16.33,34.418,16.175,34.266,16.175,34.077z"/>
					<circle fill="#FFC500" cx="16.358" cy="37.022" r="0.343"/>
					<circle fill="#FFC500" cx="16.625" cy="40.93" r="0.344"/>
					<circle fill="#FFC500" cx="16.352" cy="31.654" r="0.343"/>
					<circle fill="#FFC500" cx="24.049" cy="35.017" r="0.344"/>
					<circle fill="#FFC500" cx="19.07" cy="31.787" r="0.343"/>
				</g>
				<g>
					<path fill="#00B1CC" d="M22.295,40.333l-1.513,1.642c-0.706-0.203-1.464-0.003-1.979,0.536
						c-0.366,0.381-0.562,0.884-0.548,1.413c0.011,0.528,0.229,1.021,0.612,1.386c0.396,0.377,0.906,0.558,1.412,0.547
						c0.506-0.012,1.009-0.216,1.388-0.611c0.513-0.538,0.681-1.306,0.442-2l1.513-1.643 M20.696,44.321
						c-0.243,0.255-0.647,0.266-0.901,0.021c-0.257-0.244-0.267-0.649-0.021-0.905c0.242-0.256,0.647-0.265,0.902-0.021
						C20.934,43.66,20.942,44.066,20.696,44.321z"/>
					
						<path fill="none" stroke="#FFFFFF" stroke-width="0.8728" stroke-linecap="round" stroke-linejoin="round" stroke-miterlimit="10" d="
						M22.295,40.333l-1.513,1.642c-0.706-0.203-1.464-0.003-1.979,0.536c-0.366,0.381-0.562,0.884-0.548,1.413
						c0.011,0.528,0.229,1.021,0.612,1.386c0.396,0.377,0.906,0.558,1.412,0.547c0.506-0.012,1.009-0.216,1.388-0.611
						c0.513-0.538,0.681-1.306,0.442-2l1.513-1.643 M20.696,44.321c-0.243,0.255-0.647,0.266-0.901,0.021
						c-0.257-0.244-0.267-0.649-0.021-0.905c0.242-0.256,0.647-0.265,0.902-0.021C20.934,43.66,20.942,44.066,20.696,44.321z"/>
					
						<path fill="none" stroke="#293F54" stroke-width="0.4228" stroke-linecap="round" stroke-linejoin="round" stroke-miterlimit="10" d="
						M22.295,40.333l-1.513,1.642c-0.706-0.203-1.464-0.003-1.979,0.536c-0.366,0.381-0.562,0.884-0.548,1.413
						c0.011,0.528,0.229,1.021,0.612,1.386c0.396,0.377,0.906,0.558,1.412,0.547c0.506-0.012,1.009-0.216,1.388-0.611
						c0.513-0.538,0.681-1.306,0.442-2l1.513-1.643 M20.696,44.321c-0.243,0.255-0.647,0.266-0.901,0.021
						c-0.257-0.244-0.267-0.649-0.021-0.905c0.242-0.256,0.647-0.265,0.902-0.021C20.934,43.66,20.942,44.066,20.696,44.321z"/>
				</g>
				<g>
					<path fill="#00B1CC" d="M25.916,39.459l1.769-1.759c0.167,0.043,0.34,0.062,0.51,0.058c0.491-0.011,0.969-0.213,1.317-0.58
						c0.517-0.542,0.665-1.336,0.375-2.027l0,0l-0.164-0.393l-0.974,1.021l-0.408-0.098l-0.118-0.402l0.979-1.021L28.8,34.111
						c-0.704-0.256-1.492-0.073-2.009,0.467c-0.471,0.496-0.635,1.206-0.439,1.851l-1.766,1.759"/>
					
						<path fill="none" stroke="#FFFFFF" stroke-width="0.8728" stroke-linecap="round" stroke-linejoin="round" stroke-miterlimit="10" d="
						M25.916,39.459l1.769-1.759c0.167,0.043,0.34,0.062,0.51,0.058c0.491-0.011,0.969-0.213,1.317-0.58
						c0.517-0.542,0.665-1.336,0.375-2.027l0,0l-0.164-0.393l-0.974,1.021l-0.408-0.098l-0.118-0.402l0.979-1.021L28.8,34.111
						c-0.704-0.256-1.492-0.073-2.009,0.467c-0.471,0.496-0.635,1.206-0.439,1.851l-1.766,1.759"/>
					
						<path fill="none" stroke="#293F54" stroke-width="0.4228" stroke-linecap="round" stroke-linejoin="round" stroke-miterlimit="10" d="
						M25.916,39.459l1.769-1.759c0.167,0.043,0.34,0.062,0.51,0.058c0.491-0.011,0.969-0.213,1.317-0.58
						c0.517-0.542,0.665-1.336,0.375-2.027l0,0l-0.164-0.393l-0.974,1.021l-0.408-0.098l-0.118-0.402l0.979-1.021L28.8,34.111
						c-0.704-0.256-1.492-0.073-2.009,0.467c-0.471,0.496-0.635,1.206-0.439,1.851l-1.766,1.759"/>
				</g>
				<g>
					
						<path fill="#FFC500" stroke="#293F54" stroke-width="0.4228" stroke-linecap="round" stroke-linejoin="round" stroke-miterlimit="10" d="
						M21.541,34.144c0-0.001,0-0.003,0-0.004c0-0.129-0.071-0.247-0.187-0.305c-0.117-0.06-0.256-0.048-0.36,0.031l-0.93,0.692
						l-1.098-0.372c-0.124-0.042-0.259-0.011-0.353,0.082s-0.125,0.228-0.083,0.352l0.374,1.099l-0.692,0.93
						c-0.081,0.104-0.094,0.243-0.031,0.359c0.058,0.118,0.176,0.19,0.308,0.188l1.158-0.014l0.67,0.946
						c0.078,0.108,0.205,0.163,0.336,0.142c0.13-0.021,0.234-0.112,0.272-0.238l0.345-1.106l1.106-0.344
						c0.126-0.039,0.217-0.144,0.238-0.274c0.001-0.019,0.002-0.037,0.002-0.054c0-0.111-0.052-0.215-0.145-0.279l-0.944-0.67
						L21.541,34.144z"/>
					
						<path fill="none" stroke="#293F54" stroke-width="0.4228" stroke-linecap="round" stroke-linejoin="round" stroke-miterlimit="10" d="
						M25.042,41.181c-0.135,0.134-0.135,0.35,0,0.485l3.638,3.639c0.269,0.268,0.703,0.268,0.972,0c0.268-0.268,0.268-0.702,0-0.97
						l-3.639-3.639c-0.134-0.134-0.351-0.134-0.487,0L25.042,41.181z"/>
					
						<path fill="none" stroke="#293F54" stroke-width="0.4228" stroke-linecap="round" stroke-linejoin="round" stroke-miterlimit="10" d="
						M21.818,37.472l-0.115,0.37l2.854,2.854l0.484-0.485l-2.854-2.854L21.818,37.472z"/>
				</g>
			</g>
			<g>
				<path fill="#293F54" d="M32.187,39.615v-1.672l0.765,0c0.153,0,0.285,0.025,0.396,0.074s0.196,0.121,0.257,0.214
					c0.061,0.093,0.091,0.203,0.091,0.331c0,0.126-0.03,0.235-0.091,0.328c-0.061,0.092-0.146,0.164-0.257,0.213
					c-0.11,0.05-0.242,0.076-0.396,0.076l-0.502,0l0.211-0.205v0.643L32.187,39.615z M32.66,39.023l-0.211-0.218l0.474,0
					c0.099,0,0.172-0.021,0.221-0.064s0.073-0.103,0.073-0.179c0-0.078-0.024-0.139-0.073-0.182s-0.122-0.064-0.221-0.064l-0.474,0
					l0.211-0.217V39.023z"/>
				<path fill="#293F54" d="M34.06,39.616v-1.672l0.765,0c0.153,0,0.285,0.025,0.396,0.074s0.196,0.121,0.257,0.214
					c0.061,0.093,0.091,0.203,0.091,0.331c0,0.126-0.03,0.235-0.091,0.326c-0.061,0.092-0.146,0.162-0.257,0.21
					c-0.11,0.048-0.242,0.073-0.396,0.073l-0.502,0l0.211-0.198v0.643L34.06,39.616z M34.533,39.024l-0.211-0.218l0.474,0
					c0.099,0,0.172-0.021,0.221-0.064s0.073-0.103,0.073-0.179c0-0.078-0.024-0.139-0.073-0.182s-0.122-0.064-0.221-0.064l-0.474,0
					l0.211-0.217V39.024z M35.095,39.616l-0.416-0.609h0.504l0.418,0.609H35.095z"/>
				<path fill="#293F54" d="M36.808,39.65c-0.134,0-0.258-0.022-0.37-0.065c-0.113-0.043-0.212-0.104-0.295-0.183
					c-0.084-0.079-0.149-0.171-0.195-0.276s-0.069-0.221-0.069-0.347c0-0.125,0.023-0.241,0.069-0.346s0.111-0.197,0.195-0.276
					c0.083-0.079,0.182-0.14,0.295-0.182c0.112-0.043,0.236-0.065,0.37-0.065c0.135,0,0.259,0.021,0.371,0.065
					c0.112,0.043,0.21,0.104,0.293,0.183c0.083,0.079,0.147,0.171,0.194,0.276s0.071,0.221,0.071,0.346
					c0,0.126-0.024,0.242-0.071,0.348s-0.111,0.198-0.194,0.276c-0.083,0.078-0.181,0.138-0.293,0.181S36.942,39.65,36.808,39.65z
					 M36.808,39.258c0.063,0,0.123-0.011,0.178-0.033c0.055-0.022,0.103-0.055,0.144-0.097c0.04-0.042,0.072-0.093,0.096-0.151
					c0.022-0.059,0.034-0.125,0.034-0.196c0-0.073-0.012-0.139-0.034-0.197c-0.023-0.058-0.056-0.108-0.096-0.15
					c-0.041-0.042-0.089-0.075-0.144-0.097c-0.055-0.022-0.114-0.033-0.178-0.033s-0.123,0.011-0.178,0.033
					c-0.056,0.022-0.104,0.055-0.144,0.097c-0.041,0.042-0.072,0.092-0.096,0.15s-0.035,0.124-0.035,0.197
					c0,0.072,0.012,0.137,0.035,0.196c0.023,0.059,0.055,0.11,0.096,0.152c0.04,0.042,0.088,0.075,0.144,0.097
					C36.685,39.247,36.744,39.258,36.808,39.258z"/>
				<path fill="#293F54" d="M38.453,39.617V38.32l-0.514,0v-0.375l1.498,0v0.375h-0.512v1.297H38.453z"/>
				<path fill="#293F54" d="M40.219,39.251l0.874,0v0.366l-1.343,0v-1.672l1.312,0v0.366l-0.843,0V39.251z M40.186,38.592l0.776,0
					v0.354l-0.776,0V38.592z"/>
				<path fill="#293F54" d="M42.336,39.652c-0.134,0-0.258-0.022-0.37-0.065c-0.113-0.043-0.212-0.104-0.295-0.183
					c-0.084-0.079-0.149-0.171-0.195-0.276s-0.069-0.221-0.069-0.347c0-0.125,0.023-0.241,0.069-0.346s0.111-0.197,0.195-0.276
					c0.083-0.079,0.182-0.14,0.295-0.183c0.112-0.043,0.236-0.065,0.37-0.064c0.135,0,0.259,0.021,0.371,0.065
					c0.112,0.043,0.21,0.104,0.293,0.183c0.083,0.079,0.147,0.171,0.194,0.276s0.071,0.221,0.071,0.346
					c0,0.126-0.024,0.242-0.071,0.348S43.083,39.328,43,39.406c-0.083,0.078-0.181,0.138-0.293,0.181S42.471,39.652,42.336,39.652z
					 M42.336,39.26c0.063,0,0.123-0.011,0.178-0.033c0.055-0.022,0.103-0.055,0.144-0.097c0.04-0.042,0.072-0.093,0.096-0.151
					c0.022-0.059,0.034-0.125,0.034-0.196c0-0.073-0.012-0.139-0.034-0.197c-0.023-0.058-0.056-0.108-0.096-0.15
					c-0.041-0.042-0.089-0.075-0.144-0.097c-0.055-0.022-0.114-0.033-0.178-0.033c-0.063,0-0.123,0.011-0.178,0.033
					c-0.056,0.022-0.104,0.055-0.144,0.097c-0.041,0.042-0.072,0.092-0.096,0.15s-0.035,0.124-0.035,0.197
					c0,0.072,0.012,0.137,0.035,0.196c0.023,0.059,0.055,0.109,0.096,0.151c0.04,0.042,0.088,0.075,0.144,0.097
					C42.213,39.248,42.272,39.259,42.336,39.26z"/>
				<path fill="#00B1CC" d="M32.504,42.362v-1.297H31.99l0.001-0.375l1.498,0l-0.001,0.375h-0.512v1.297L32.504,42.362z"/>
				<path fill="#00B1CC" d="M34.532,42.396c-0.134,0-0.258-0.022-0.37-0.065c-0.113-0.043-0.212-0.104-0.295-0.183
					c-0.084-0.079-0.149-0.171-0.195-0.276s-0.069-0.221-0.069-0.347c0-0.125,0.023-0.241,0.069-0.346s0.111-0.197,0.195-0.276
					c0.083-0.079,0.183-0.14,0.296-0.183c0.112-0.043,0.236-0.065,0.37-0.064c0.135,0,0.259,0.021,0.371,0.065
					c0.112,0.043,0.209,0.104,0.292,0.183c0.083,0.079,0.147,0.171,0.194,0.276s0.071,0.221,0.071,0.346
					c0,0.126-0.024,0.242-0.071,0.348s-0.111,0.198-0.194,0.276c-0.083,0.078-0.181,0.138-0.293,0.181S34.667,42.396,34.532,42.396z
					 M34.532,42.004c0.063,0,0.123-0.011,0.178-0.033c0.055-0.022,0.103-0.055,0.144-0.097c0.04-0.042,0.072-0.093,0.096-0.151
					c0.022-0.059,0.034-0.125,0.034-0.196c0-0.073-0.012-0.139-0.034-0.197c-0.023-0.058-0.056-0.108-0.096-0.15
					c-0.041-0.042-0.089-0.075-0.144-0.097c-0.055-0.022-0.114-0.033-0.178-0.033c-0.063,0-0.123,0.011-0.178,0.033
					c-0.056,0.022-0.104,0.055-0.144,0.097c-0.041,0.042-0.072,0.092-0.096,0.15s-0.035,0.124-0.035,0.197
					c0,0.072,0.012,0.137,0.035,0.196c0.023,0.059,0.055,0.109,0.096,0.151c0.04,0.042,0.088,0.075,0.144,0.097
					C34.409,41.993,34.469,42.004,34.532,42.004z"/>
				<path fill="#00B1CC" d="M36.602,42.397c-0.134,0-0.258-0.022-0.37-0.065c-0.113-0.043-0.212-0.104-0.295-0.183
					c-0.084-0.079-0.149-0.171-0.195-0.276s-0.069-0.221-0.069-0.347c0-0.125,0.023-0.241,0.069-0.346s0.111-0.197,0.195-0.276
					c0.083-0.079,0.183-0.14,0.296-0.183c0.112-0.043,0.236-0.064,0.37-0.064c0.135,0,0.259,0.021,0.371,0.065
					c0.112,0.043,0.209,0.104,0.292,0.183c0.083,0.079,0.147,0.171,0.194,0.276s0.071,0.221,0.071,0.346
					c0,0.126-0.024,0.242-0.071,0.348s-0.111,0.198-0.194,0.276c-0.083,0.078-0.181,0.138-0.293,0.181S36.736,42.397,36.602,42.397z
					 M36.602,42.005c0.063,0,0.123-0.011,0.178-0.033c0.055-0.022,0.103-0.055,0.144-0.097c0.04-0.042,0.072-0.093,0.096-0.151
					c0.022-0.059,0.034-0.125,0.034-0.196c0-0.073-0.012-0.139-0.034-0.197c-0.023-0.058-0.056-0.108-0.096-0.15
					c-0.041-0.042-0.089-0.075-0.144-0.097c-0.055-0.022-0.114-0.033-0.178-0.033s-0.123,0.011-0.178,0.033
					c-0.056,0.022-0.104,0.054-0.144,0.097c-0.041,0.042-0.072,0.092-0.096,0.15s-0.035,0.124-0.035,0.197
					c0,0.072,0.012,0.137,0.035,0.196c0.023,0.059,0.055,0.109,0.096,0.151c0.04,0.042,0.088,0.075,0.144,0.098
					C36.479,41.994,36.538,42.005,36.602,42.005z"/>
				<path fill="#00B1CC" d="M37.826,42.363l0.001-1.672h0.474L38.3,41.988l0.798,0v0.375L37.826,42.363z"/>
				<path fill="#00B1CC" d="M39.331,42.364l0.001-1.672h0.469L39.8,42.364H39.331z M39.754,41.994l-0.026-0.531l0.721-0.771h0.521
					l-0.718,0.776l-0.263,0.275L39.754,41.994z M40.454,42.364l-0.545-0.691l0.309-0.33l0.786,1.021H40.454z"/>
				<path fill="#00B1CC" d="M41.176,42.364l0.001-1.672h0.474l-0.001,1.672H41.176z"/>
				<path fill="#00B1CC" d="M42.39,42.365v-1.297l-0.514,0l0.001-0.375l1.498,0l-0.001,0.375h-0.512v1.297H42.39z"/>
			</g>
			
				<line fill="none" stroke="#293F54" stroke-width="0.5245" stroke-linecap="round" stroke-linejoin="round" stroke-miterlimit="10" x1="31.969" y1="35.461" x2="43.886" y2="35.461"/>
			
				<line fill="none" stroke="#293F54" stroke-width="0.5245" stroke-linecap="round" stroke-linejoin="round" stroke-miterlimit="10" x1="31.969" y1="44.627" x2="43.886" y2="44.627"/>
		</g>
	</g>
	<path fill="#98C020" d="M29.011,7.008c0.309,0,0.575-0.107,0.8-0.324c0.199-0.191,0.304-0.392,0.313-0.6
		c0.009-0.141-0.046-0.281-0.163-0.418c-0.116-0.138-0.263-0.206-0.437-0.206c-0.3,0-0.573,0.1-0.819,0.3
		c-0.244,0.199-0.372,0.407-0.38,0.624C28.308,6.8,28.536,7.008,29.011,7.008z"/>
	<path fill="#FFFFFF" d="M37.515,11.228l-0.14-0.185c-0.095,0.108-0.214,0.225-0.361,0.348c-0.179,0.147-0.302,0.222-0.37,0.222
		c-0.094,0-0.154-0.02-0.178-0.06c-0.024-0.039-0.035-0.11-0.029-0.214c0-0.039,0.03-0.191,0.092-0.455
		c0.062-0.263,0.095-0.464,0.101-0.602c0.004-0.202-0.033-0.358-0.111-0.466C36.414,9.684,36.241,9.627,36,9.646
		c-0.281,0.025-0.574,0.136-0.88,0.333c-0.128,0.084-0.251,0.183-0.37,0.296c0.213-0.89,0.321-1.497,0.326-1.824
		c0.005-0.483-0.194-0.733-0.599-0.748c-0.458-0.016-0.794,0.243-1.006,0.776c0.089-0.04,0.174-0.06,0.251-0.06
		c0.064,0,0.131,0.04,0.2,0.118c0.103,0.124,0.146,0.313,0.125,0.57c-0.014,0.188-0.059,0.591-0.134,1.207
		c-0.016,0.154-0.032,0.296-0.046,0.428c-0.029,0.021-0.057,0.042-0.088,0.063c-0.374,0.249-0.716,0.374-1.022,0.374
		c-0.408,0-0.608-0.153-0.6-0.461c0.017-0.534,0.107-1.233,0.274-2.099h0.887c0.067,0,0.101-0.029,0.101-0.088l0.11-0.536
		c0.018-0.084-0.019-0.125-0.11-0.125h-0.837c0.199-0.949,0.337-1.607,0.411-1.974c0.017-0.066-0.033-0.1-0.148-0.1
		c-0.219,0-0.501,0.092-0.85,0.274c-0.375,0.2-0.58,0.4-0.612,0.6l-0.2,1.199h-0.513c-0.066,0-0.104,0.029-0.112,0.087l-0.112,0.537
		C30.43,8.579,30.468,8.62,30.559,8.62h0.514c-0.126,0.723-0.222,1.32-0.285,1.796c-0.124,0.124-0.266,0.254-0.428,0.39
		c-0.299,0.249-0.507,0.374-0.623,0.374c-0.268,0-0.396-0.179-0.389-0.537c0.125-0.782,0.242-1.427,0.35-1.935
		c0.033-0.3-0.015-0.544-0.144-0.731c-0.129-0.187-0.33-0.269-0.604-0.243c-0.176,0.017-0.441,0.184-0.8,0.5
		c-0.266,0.241-0.533,0.482-0.8,0.724l0.288,0.338c0.232-0.176,0.374-0.263,0.424-0.263c0.15,0,0.225,0.108,0.225,0.324
		c0,0.042-0.081,0.351-0.243,0.924c-0.041,0.146-0.077,0.282-0.108,0.409c-0.375,0.26-0.856,0.531-1.446,0.815
		c0.301-0.991,0.466-1.915,0.499-2.772c0.026-0.69-0.282-1.045-0.923-1.062c-0.774-0.024-1.282,0.408-1.523,1.299
		c0.135-0.058,0.274-0.087,0.418-0.087c0.118,0,0.215,0.047,0.292,0.143c0.075,0.097,0.109,0.207,0.102,0.331
		c-0.009,0.325-0.175,0.673-0.497,1.043c-0.323,0.371-0.61,0.557-0.862,0.557c-0.176,0-0.261-0.15-0.252-0.45
		c0.009-0.158,0.063-0.479,0.162-0.962c0.091-0.457,0.137-0.766,0.137-0.924c0-0.274-0.07-0.497-0.211-0.668
		c-0.142-0.171-0.347-0.244-0.612-0.219c-0.184,0.017-0.454,0.184-0.812,0.5c-0.267,0.241-0.532,0.482-0.8,0.724l0.287,0.338
		c0.233-0.176,0.376-0.263,0.425-0.263c0.158,0,0.233,0.108,0.225,0.324c0,0.018-0.074,0.279-0.225,0.787
		c-0.149,0.508-0.228,0.887-0.236,1.137c-0.017,0.342,0.046,0.604,0.188,0.786c0.174,0.225,0.467,0.32,0.876,0.287
		c0.485-0.033,0.97-0.212,1.455-0.537c0.201-0.133,0.393-0.287,0.576-0.462c-0.066,0.333-0.146,0.616-0.236,0.85
		c-0.9,0.408-1.549,0.758-1.948,1.049c-0.566,0.407-0.87,0.845-0.911,1.311c-0.076,0.808,0.332,1.212,1.223,1.212
		c0.6,0,1.179-0.366,1.736-1.1c0.475-0.623,0.887-1.456,1.236-2.497c0.605-0.3,1.116-0.594,1.535-0.882
		c-0.014,0.097-0.022,0.183-0.024,0.258c-0.009,0.267,0.057,0.482,0.193,0.649c0.138,0.167,0.335,0.25,0.594,0.25
		c0.557,0,1.116-0.242,1.674-0.725c0.162-0.143,0.31-0.292,0.444-0.448c-0.007,0.107-0.01,0.199-0.009,0.273
		c0.009,0.6,0.358,0.899,1.05,0.899c0.565,0,1.174-0.242,1.823-0.725c0.089-0.065,0.17-0.13,0.248-0.194c0,0.003,0,0.007,0,0.01
		c-0.01,0.237,0.045,0.425,0.162,0.563c0.148,0.167,0.389,0.246,0.725,0.237c-0.044-0.104-0.062-0.297-0.051-0.577
		c0.009-0.32,0.121-0.624,0.334-0.909c0.193-0.262,0.373-0.392,0.537-0.392c0.108,0,0.158,0.091,0.148,0.273
		c-0.006,0.118-0.034,0.289-0.086,0.514c-0.051,0.224-0.079,0.417-0.085,0.58c-0.005,0.158,0.034,0.286,0.115,0.384
		c0.081,0.1,0.197,0.148,0.351,0.148c0.33,0,0.66-0.143,0.991-0.429C37.188,11.726,37.377,11.489,37.515,11.228z M23.642,14.04
		c-0.134,0-0.195-0.059-0.187-0.175c0.016-0.217,0.39-0.504,1.122-0.862C24.195,13.694,23.884,14.04,23.642,14.04z"/>
</g>
</svg>
